<svg width="32" height="32" viewBox="0 0 32 32" fill="none" xmlns="http://www.w3.org/2000/svg">
<circle cx="16" cy="16" r="16" fill="white"/>
<path d="M24.0961 2.17618C21.5789 0.725392 18.8802 0 16 0C13.0984 0 10.4104 0.725392 7.93594 2.17618C5.54688 3.60561 3.62696 5.52553 2.17618 7.93594C0.725392 10.4104 0 13.0984 0 16C0 18.8802 0.725392 21.5789 2.17618 24.0961C3.62696 26.5065 5.54688 28.4157 7.93594 29.8238C10.4104 31.2746 13.0984 32 16 32C18.8802 32 21.5789 31.2746 24.0961 29.8238C26.5065 28.4157 28.4157 26.5065 29.8238 24.0961C31.2746 21.5789 32 18.8802 32 16C32 13.0984 31.2746 10.4104 29.8238 7.93594C28.4157 5.54688 26.5065 3.62696 24.0961 2.17618ZM15.8078 5.44044V13.0881L9.63163 15.7758L15.8078 5.44044ZM16.2242 13.0881V5.44044L22.4645 15.8088L16.2242 13.0881ZM15.8078 13.5355V20.0631L9.43944 16.3193L15.8078 13.5355ZM22.5916 16.3203L16.2232 20.0641V13.5365L22.5916 16.3203ZM15.8078 21.3764V26.6246L9.47147 17.6647L15.8078 21.3764ZM22.5285 17.6637L16.2242 26.6236V21.3754L22.5285 17.6637Z" fill="#2E3192"/>
<circle cx="16" cy="16" r="16" fill="url(#paint0_linear_612_23437)" fill-opacity="0.2"/>
<defs>
<linearGradient id="paint0_linear_612_23437" x1="16" y1="0" x2="16" y2="32" gradientUnits="userSpaceOnUse">
<stop stop-color="white"/>
<stop offset="1" stop-color="white" stop-opacity="0"/>
</linearGradient>
</defs>
</svg>
