<svg width="300" height="51" viewBox="0 0 300 51" fill="none" xmlns="http://www.w3.org/2000/svg">
<g clip-path="url(#clip0_478_5916)">
<path d="M101.107 10.73L108.017 25.35L115.087 10.73H124.807V34.22H117.417V19.22L110.377 34.22H105.137L98.1272 19.22V34.22H90.8672V10.73H101.107Z" fill="#191919"/>
<path d="M151.658 16.13H136.638V19.54H151.758V25.13H136.638V28.76H151.848V34.22H129.148V10.73H151.658V16.13Z" fill="#191919"/>
<path d="M155.117 16.66V10.73H183.147V16.66H172.887V34.21H165.377V16.66H155.117Z" fill="#191919"/>
<path d="M189.367 30.1397L187.567 34.2097H180.027L190.697 10.7197H200.637L211.657 34.2097H203.607L201.777 30.1397H189.367ZM191.667 24.9597H199.467L195.517 16.1797L191.667 24.9597Z" fill="#191919"/>
<path d="M208.547 16.66V10.73H236.577V16.66H226.317V34.21H218.807V16.66H208.547Z" fill="#191919"/>
<path d="M242.797 30.1397L240.997 34.2097H233.457L244.127 10.7197H254.067L265.087 34.2097H257.037L255.207 30.1397H242.797ZM245.097 24.9597H252.897L248.947 16.1797L245.097 24.9597Z" fill="#191919"/>
<path d="M265.598 22.4098V21.6498C265.598 16.5698 268.628 10.0298 280.028 10.0298H281.098C292.338 10.0298 295.288 15.5898 295.288 19.1798H287.488C287.488 19.1798 287.548 15.7698 280.598 15.8298C275.008 15.8298 273.428 18.8598 273.428 21.7998V22.1798C273.428 25.0498 275.168 28.3998 280.718 28.3998C286.048 28.3998 287.188 25.9398 287.348 25.1798H280.778V20.8898H295.278V33.8598H289.898V29.7998C289.898 29.7998 287.168 34.2098 279.888 34.2098H279.348C268.788 34.2098 265.598 27.7098 265.598 22.4098Z" fill="#191919"/>
<path d="M68.5384 32.3702C68.5184 32.2602 68.4884 32.1502 68.4484 32.0402L62.3984 11.4702C60.4584 4.85023 56.3384 0.580225 51.3884 0.0602248C46.9284 -0.419775 42.8384 2.13022 40.1684 7.03022L35.0584 16.4202C34.9584 16.6102 34.8784 16.8002 34.8184 17.0002C34.6484 17.3502 34.4484 17.7402 34.2284 18.1902L28.5484 29.9002C27.2484 32.6202 25.8584 35.5702 24.4584 38.6102C23.6784 40.3002 20.6884 41.0602 18.0784 41.0602C15.7384 41.0602 12.6684 40.7102 11.2784 39.0202C10.0584 37.5402 10.2884 35.2102 10.3684 34.6502L16.3384 14.3602C17.0684 11.8602 18.0284 10.7502 18.4784 10.3902C18.4884 10.3802 18.4884 10.3802 18.4984 10.3902C18.7284 10.5802 19.1384 10.9902 19.6184 11.8602L26.3384 25.4402C26.3484 25.4502 26.3584 25.4502 26.3684 25.4402L30.8184 16.3602C31.6084 14.7602 31.5984 12.8802 30.8084 11.2802L28.7884 7.19022C28.7584 7.13022 28.7284 7.07022 28.6984 7.02022C26.0284 2.11022 21.9384 -0.429775 17.4784 0.0502248C12.5184 0.580225 8.40843 4.85023 6.45843 11.4702L0.408434 32.0302C0.378434 32.1402 0.348434 32.2502 0.318434 32.3602C0.148434 33.1202 -1.20157 39.9202 3.20843 45.4202C6.36843 49.3502 11.3584 51.3502 18.0684 51.3502C25.4684 51.3502 31.3484 48.2002 33.7884 42.9302C33.9884 42.5102 34.1784 42.0902 34.3784 41.6702L39.9984 29.8302C42.5884 24.4802 44.4584 20.7302 44.7384 20.1702L49.2184 11.9302C49.7284 10.9902 50.1584 10.5602 50.3884 10.3702C50.8384 10.7202 51.7984 11.8302 52.5384 14.3502L58.5084 34.6402C58.5884 35.2002 58.8184 37.5302 57.5984 39.0102C56.2084 40.7002 53.1284 41.0502 50.7984 41.0502C48.1884 41.0502 45.1984 40.2902 44.4184 38.6002C44.2784 38.3002 44.1084 38.0202 43.9284 37.7602C43.9084 37.7102 43.8884 37.6602 43.8584 37.6102L42.2984 34.4602C42.2584 34.4602 42.2584 34.4602 42.2184 34.4602L41.5084 35.9302L38.4384 42.2602C37.3384 44.5302 38.2284 47.4202 40.3884 48.7202C43.1984 50.4102 46.7684 51.3402 50.7884 51.3402C57.4884 51.3402 62.4884 49.3502 65.6484 45.4102C70.0584 39.9302 68.7084 33.1302 68.5384 32.3702Z" fill="url(#paint0_linear_478_5916)"/>
</g>
<defs>
<linearGradient id="paint0_linear_478_5916" x1="-3.66914" y1="25.6715" x2="75.3957" y2="25.6714" gradientUnits="userSpaceOnUse">
<stop stop-color="#D926AE"/>
<stop offset="0.510417" stop-color="#FF4361"/>
<stop offset="1" stop-color="#FF7362"/>
</linearGradient>
<clipPath id="clip0_478_5916">
<rect width="300" height="51" fill="white"/>
</clipPath>
</defs>
</svg>
