<svg width="140" height="48" viewBox="0 0 140 48" fill="none" xmlns="http://www.w3.org/2000/svg">
<g clip-path="url(#clip0_121_382)">
<path d="M39.595 21.4221H41.5056H50.7995V19.967C50.7995 8.95724 41.8026 0 30.7466 0H29.8002C28.1746 0 26.559 0.197166 24.9948 0.579667C23.8326 0.372643 22.6427 0.266174 21.4527 0.266174H20.0529C8.99489 0.268145 0 9.22539 0 20.2351V28.033C0 39.0428 8.99489 48.002 20.0529 48.002H21.4527C23.0782 48.002 24.6939 47.8048 26.258 47.4223C27.4203 47.6293 28.6102 47.7358 29.8002 47.7358H30.7466C41.8026 47.7358 50.7995 38.7786 50.7995 27.7669V26.4577H41.5056H39.595H29.418V28.7665C29.418 31.5169 27.9865 34.0367 25.6502 35.4603C23.2842 34.0426 21.8348 31.513 21.8348 28.7389V19.7008C21.8348 16.9503 23.2663 14.4306 25.6047 13.007C27.9707 14.4246 29.42 16.9543 29.42 19.7284V21.4221H39.595ZM48.8789 28.3584C48.5641 38.0471 40.5513 45.8332 30.7466 45.8332H30.5565C30.5723 45.8253 30.5882 45.8174 30.604 45.8075C30.7109 45.7523 30.8179 45.6971 30.9248 45.6399C30.9446 45.6281 30.9664 45.6182 30.9862 45.6084C31.1129 45.5394 31.2376 45.4704 31.3623 45.3994C31.398 45.3797 31.4316 45.36 31.4673 45.3383C31.5584 45.285 31.6494 45.2338 31.7405 45.1786C31.7821 45.1529 31.8237 45.1293 31.8652 45.1036C31.9543 45.0504 32.0415 44.9952 32.1286 44.94C32.1642 44.9183 32.2018 44.8946 32.2375 44.873C32.3602 44.7961 32.481 44.7172 32.5998 44.6364C32.6038 44.6324 32.6097 44.6304 32.6137 44.6265C32.7285 44.5496 32.8433 44.4707 32.9562 44.3919C32.9918 44.3662 33.0275 44.3406 33.0631 44.315C33.1463 44.2558 33.2314 44.1947 33.3146 44.1336C33.3522 44.106 33.3918 44.0784 33.4294 44.0488C33.5165 43.9837 33.6036 43.9167 33.6908 43.8497C33.7185 43.828 33.7482 43.8063 33.7759 43.7846C33.8907 43.6959 34.0036 43.6052 34.1164 43.5145C34.1382 43.4967 34.158 43.479 34.1798 43.4612C34.2709 43.3863 34.36 43.3114 34.4511 43.2345C34.4867 43.2049 34.5223 43.1734 34.558 43.1418C34.6352 43.0748 34.7124 43.0078 34.7896 42.9388C34.8253 42.9072 34.8589 42.8776 34.8946 42.8461C34.9837 42.7653 35.0728 42.6844 35.1619 42.6016C35.1797 42.5839 35.1995 42.5681 35.2173 42.5503C35.3222 42.4518 35.4272 42.3492 35.5321 42.2487C35.5598 42.2211 35.5875 42.1935 35.6153 42.1659C35.6925 42.089 35.7677 42.0141 35.843 41.9372C35.8766 41.9017 35.9123 41.8662 35.9459 41.8307C36.0172 41.7558 36.0885 41.6808 36.1598 41.6039C36.1895 41.5704 36.2211 41.5389 36.2508 41.5054C36.3498 41.3969 36.4488 41.2885 36.5458 41.1781C36.631 41.0815 36.7141 40.9848 36.7953 40.8882C36.8131 40.8685 36.829 40.8488 36.8448 40.8271C36.9102 40.7502 36.9755 40.6714 37.0388 40.5945C37.0626 40.5649 37.0844 40.5353 37.1081 40.5077C37.1636 40.4387 37.221 40.3677 37.2764 40.2987C37.3081 40.2573 37.3398 40.2159 37.3715 40.1745C37.417 40.1153 37.4626 40.0562 37.5081 39.997C37.5418 39.9537 37.5734 39.9083 37.6071 39.863C37.6487 39.8058 37.6922 39.7486 37.7338 39.6914C37.7675 39.6441 37.8011 39.5968 37.8328 39.5515C37.8724 39.4962 37.912 39.4391 37.9516 39.3839C37.9872 39.3326 38.0229 39.2794 38.0585 39.2261C38.0942 39.1749 38.1298 39.1236 38.1635 39.0704C38.2011 39.0152 38.2367 38.96 38.2724 38.9047C38.304 38.8555 38.3377 38.8062 38.3694 38.7549C38.407 38.6958 38.4446 38.6346 38.4822 38.5755C38.5119 38.5282 38.5416 38.4828 38.5693 38.4355C38.6089 38.3704 38.6485 38.3054 38.6881 38.2403C38.7139 38.1989 38.7396 38.1555 38.7654 38.1141C38.805 38.0471 38.8426 37.98 38.8822 37.913C38.9059 37.8716 38.9297 37.8302 38.9535 37.7888C38.995 37.7158 39.0327 37.6449 39.0723 37.5719C39.0921 37.5344 39.1138 37.497 39.1336 37.4595C39.1732 37.3866 39.2108 37.3136 39.2504 37.2387C39.2702 37.2012 39.29 37.1638 39.3098 37.1263C39.3494 37.0494 39.3871 36.9725 39.4247 36.8956C39.4425 36.8601 39.4603 36.8266 39.4781 36.7911C39.5177 36.7123 39.5554 36.6314 39.593 36.5526C39.6088 36.519 39.6247 36.4855 39.6405 36.452C39.6781 36.3712 39.7157 36.2884 39.7534 36.2075C39.7672 36.176 39.7831 36.1444 39.7969 36.1129C39.8345 36.0281 39.8702 35.9433 39.9078 35.8585C39.9216 35.829 39.9335 35.7994 39.9474 35.7678C39.983 35.6831 40.0187 35.5963 40.0523 35.5115C40.0642 35.4819 40.0781 35.4504 40.0899 35.4208C40.1256 35.3341 40.1592 35.2454 40.1929 35.1586C40.2048 35.129 40.2147 35.1014 40.2266 35.0718C40.2602 34.9831 40.2919 34.8944 40.3256 34.8037C40.3355 34.7761 40.3454 34.7485 40.3572 34.7189C40.3889 34.6302 40.4186 34.5415 40.4503 34.4527C40.4602 34.4232 40.4701 34.3936 40.48 34.366C40.5097 34.2773 40.5394 34.1866 40.5671 34.0978C40.577 34.0683 40.5869 34.0387 40.5948 34.0091C40.6225 33.9184 40.6503 33.8277 40.678 33.737C40.6859 33.7075 40.6958 33.6799 40.7037 33.6503C40.7295 33.5616 40.7552 33.4709 40.7809 33.3802C40.7889 33.3486 40.7988 33.319 40.8067 33.2875C40.8304 33.1968 40.8542 33.1081 40.878 33.0174C40.8859 32.9858 40.8938 32.9563 40.9017 32.9247C40.9235 32.836 40.9453 32.7453 40.9671 32.6546C40.975 32.623 40.9829 32.5895 40.9908 32.558C41.0106 32.4693 41.0304 32.3786 41.0502 32.2898C41.0581 32.2563 41.0661 32.2228 41.072 32.1893C41.0898 32.1025 41.1076 32.0138 41.1255 31.927C41.1334 31.8916 41.1393 31.8561 41.1472 31.8186C41.1631 31.7338 41.1789 31.6471 41.1948 31.5623C41.2007 31.5229 41.2086 31.4854 41.2165 31.446C41.2304 31.3612 41.2443 31.2764 41.2581 31.1936C41.2641 31.1522 41.272 31.1128 41.2779 31.0714C41.2898 30.9885 41.3017 30.9077 41.3136 30.8249C41.3195 30.7815 41.3254 30.7381 41.3314 30.6948C41.3413 30.6159 41.3512 30.5351 41.3611 30.4542C41.367 30.4108 41.3729 30.3675 41.3769 30.3241C41.3888 30.2551 41.3967 30.1861 41.4066 30.1171C41.4145 30.0579 41.4244 29.9988 41.4323 29.9396C41.4422 29.8588 41.4502 29.776 41.4581 29.6951C41.464 29.6439 41.47 29.5906 41.4739 29.5394C41.4818 29.4428 41.4878 29.3462 41.4917 29.2476C41.4937 29.2101 41.4977 29.1726 41.4977 29.1352C41.5036 29.0011 41.5056 28.8651 41.5056 28.731V28.3524H48.8789V28.3584ZM31.3267 28.7645V28.3584H39.589C39.589 28.3958 39.589 28.4333 39.587 28.4688C39.5851 28.5299 39.5831 28.589 39.5811 28.6502C39.5771 28.7527 39.5732 28.8552 39.5672 28.9558C39.5633 29.0169 39.5613 29.076 39.5573 29.1372C39.5514 29.2436 39.5435 29.3501 39.5356 29.4585C39.5316 29.5118 39.5276 29.565 39.5237 29.6182C39.5098 29.772 39.496 29.9238 39.4781 30.0757C39.4781 30.0816 39.4762 30.0855 39.4762 30.0914C39.397 30.7835 39.2782 31.4657 39.1218 32.1341C38.9911 32.6921 38.8347 33.2402 38.6525 33.7765C38.5792 33.9914 38.502 34.2043 38.4228 34.4173C36.53 39.372 32.487 43.3528 27.3787 45.1135C27.3015 45.1391 27.2243 45.1648 27.147 45.1904C27.0936 45.2081 27.0401 45.2259 26.9867 45.2436C26.658 45.3481 26.3254 45.4447 25.9888 45.5295H25.9868C24.5137 45.9081 22.9892 46.0993 21.4507 46.0993H20.0509C10.0462 46.0993 1.90867 37.9938 1.90867 28.033V20.2351C1.91065 10.2743 10.0482 2.16882 20.0529 2.16882H20.7162C20.7162 2.16882 20.7162 2.16882 20.7142 2.16882C20.5736 2.2398 20.435 2.31275 20.2964 2.38768C20.2548 2.40937 20.2152 2.43303 20.1737 2.45471C20.0727 2.50992 19.9737 2.56513 19.8727 2.6223C19.8292 2.64596 19.7876 2.6716 19.744 2.69526C19.6272 2.76229 19.5124 2.8313 19.3975 2.90031C19.3777 2.91214 19.3579 2.92397 19.3381 2.9358C19.2055 3.01664 19.0728 3.10142 18.9402 3.18423C18.9025 3.20789 18.8669 3.23155 18.8293 3.25718C18.7323 3.32027 18.6353 3.38534 18.5402 3.4504C18.4986 3.478 18.4571 3.50758 18.4155 3.53518C18.3125 3.60616 18.2115 3.67714 18.1106 3.75009C18.0828 3.76981 18.0551 3.78953 18.0274 3.80924C17.9007 3.89994 17.776 3.99458 17.6512 4.08922C17.6195 4.11288 17.5879 4.13654 17.5582 4.16217C17.4631 4.23512 17.3701 4.30807 17.275 4.38299C17.2354 4.41454 17.1958 4.44609 17.1562 4.47763C17.0632 4.55256 16.9721 4.62748 16.881 4.70438C16.8493 4.73001 16.8196 4.75564 16.788 4.78127C16.6692 4.88182 16.5504 4.98435 16.4336 5.08885C16.4098 5.11054 16.386 5.13222 16.3623 5.15391C16.2692 5.23869 16.1762 5.32348 16.0831 5.40826C16.0475 5.44177 16.0098 5.47726 15.9742 5.51078C15.8891 5.58965 15.8059 5.67049 15.7228 5.75133C15.6911 5.78287 15.6594 5.81245 15.6277 5.84399C15.5168 5.95441 15.406 6.06679 15.2971 6.17917C15.2832 6.19298 15.2693 6.20875 15.2555 6.22452C15.1604 6.32311 15.0674 6.42366 14.9743 6.52421C14.9407 6.5597 14.909 6.59717 14.8753 6.63266C14.7981 6.71744 14.7229 6.80419 14.6476 6.88897C14.616 6.92446 14.5843 6.95995 14.5546 6.99544C14.4516 7.11571 14.3506 7.23401 14.2497 7.35625C13.9032 7.77819 13.5765 8.21195 13.2676 8.65755C11.1907 11.6545 9.99279 15.1187 9.77895 18.784C9.77103 18.92 9.76509 19.0561 9.75915 19.1921V19.2C9.75519 19.2552 9.75519 19.3124 9.75123 19.3676C9.74925 19.3972 9.74925 19.4267 9.74727 19.4563C9.74529 19.5273 9.74529 19.5983 9.74331 19.6693C9.74331 19.689 9.74331 19.7087 9.74331 19.7284V19.967V27.7649V28.7645C9.74331 29.0583 9.75717 29.3501 9.78291 29.6399C9.82647 30.123 9.90567 30.6021 10.0205 31.0694C11.0877 35.4504 14.9981 38.5084 19.5322 38.5084H21.5379C21.8348 38.5084 22.1318 38.4946 22.4288 38.467C22.613 38.4513 22.7951 38.4276 22.9773 38.402C23.0109 38.398 23.0446 38.3921 23.0763 38.3862C24.0326 38.2344 24.9651 37.9445 25.8324 37.5226C25.9215 37.4792 26.0086 37.4359 26.0957 37.3885C26.6105 37.1184 27.0936 36.8069 27.543 36.4599L27.549 36.4559C29.913 34.6302 31.3267 31.8107 31.3267 28.7645ZM19.9242 19.7008V28.7369C19.9242 31.7397 21.2923 34.5139 23.5871 36.3436C23.5653 36.3495 23.5435 36.3554 23.5218 36.3613C23.4742 36.3731 23.4287 36.385 23.3812 36.3968C23.3475 36.4047 23.3119 36.4126 23.2782 36.4205C23.2327 36.4303 23.1852 36.4402 23.1396 36.45C23.104 36.4579 23.0703 36.4638 23.0347 36.4717C22.9892 36.4796 22.9416 36.4895 22.8961 36.4974C22.8605 36.5033 22.8248 36.5092 22.7892 36.5151C22.7417 36.523 22.6961 36.5289 22.6486 36.5348C22.613 36.5388 22.5773 36.5447 22.5437 36.5486C22.4961 36.5545 22.4466 36.5604 22.3991 36.5644C22.3655 36.5683 22.3298 36.5723 22.2962 36.5742C22.2467 36.5782 22.1952 36.5821 22.1437 36.5861C22.1101 36.588 22.0784 36.592 22.0447 36.594C21.9893 36.5979 21.9319 36.5999 21.8764 36.6019C21.8487 36.6038 21.821 36.6038 21.7933 36.6058C21.7101 36.6078 21.625 36.6097 21.5398 36.6097H19.5341C19.4213 36.6097 19.3065 36.6078 19.1936 36.6019C19.156 36.5999 19.1164 36.5959 19.0788 36.594C19.0055 36.59 18.9303 36.5861 18.857 36.5802C18.8134 36.5762 18.7699 36.5703 18.7243 36.5664C18.657 36.5604 18.5897 36.5545 18.5224 36.5447C18.4749 36.5388 18.4293 36.5309 18.3818 36.525C18.3185 36.5151 18.2551 36.5072 18.1917 36.4974C18.1442 36.4895 18.0967 36.4796 18.0492 36.4698C17.9878 36.4579 17.9264 36.4481 17.867 36.4343C17.8215 36.4244 17.774 36.4126 17.7284 36.4027C17.6671 36.3889 17.6057 36.3751 17.5463 36.3593C17.5007 36.3475 17.4552 36.3337 17.4097 36.3219C17.3503 36.3061 17.2889 36.2903 17.2315 36.2726C17.1859 36.2588 17.1404 36.243 17.0949 36.2292C17.0374 36.2095 16.978 36.1917 16.9206 36.172C16.8771 36.1563 16.8335 36.1405 16.7899 36.1227C16.7325 36.1011 16.6731 36.0813 16.6157 36.0577C16.5741 36.0419 16.5325 36.0222 16.491 36.0044C16.4336 35.9808 16.3742 35.9571 16.3167 35.9315C16.2752 35.9137 16.2356 35.894 16.196 35.8743C16.1385 35.8467 16.0811 35.8211 16.0237 35.7935C15.9841 35.7738 15.9465 35.754 15.9069 35.7343C15.8495 35.7047 15.792 35.6771 15.7366 35.6456C15.699 35.6259 15.6634 35.6042 15.6257 35.5825C15.5683 35.551 15.5129 35.5194 15.4574 35.4859C15.4218 35.4642 15.3862 35.4425 15.3525 35.4189C15.2971 35.3834 15.2416 35.3498 15.1862 35.3144C15.1525 35.2927 15.1189 35.269 15.0852 35.2453C15.0298 35.2079 14.9743 35.1704 14.9209 35.133C14.8892 35.1093 14.8575 35.0856 14.8258 35.062C14.7704 35.0226 14.7169 34.9812 14.6635 34.9397C14.6338 34.9161 14.6041 34.8905 14.5724 34.8668C14.5189 34.8234 14.4655 34.782 14.414 34.7367C14.3843 34.711 14.3566 34.6854 14.3289 34.6617C14.2774 34.6164 14.2239 34.571 14.1744 34.5237C14.1467 34.4981 14.121 34.4725 14.0933 34.4449C14.0438 34.3975 13.9923 34.3502 13.9428 34.3009C13.917 34.2753 13.8913 34.2477 13.8656 34.2201C13.8161 34.1688 13.7685 34.1195 13.721 34.0683C13.6973 34.0407 13.6735 34.0131 13.6478 33.9855C13.6002 33.9322 13.5527 33.881 13.5072 33.8258C13.4834 33.7982 13.4617 33.7686 13.4379 33.741C13.3924 33.6858 13.3468 33.6325 13.3052 33.5754C13.2835 33.5458 13.2617 33.5162 13.2399 33.4866C13.1963 33.4295 13.1548 33.3742 13.1132 33.3151C13.0914 33.2855 13.0716 33.254 13.0498 33.2244C13.0102 33.1653 12.9686 33.1081 12.929 33.0489C12.9092 33.0174 12.8894 32.9839 12.8677 32.9523C12.83 32.8932 12.7924 32.834 12.7568 32.7729C12.737 32.7394 12.7172 32.7039 12.6994 32.6704C12.6657 32.6092 12.6301 32.5501 12.5964 32.489C12.5766 32.4535 12.5588 32.418 12.541 32.3825C12.5093 32.3214 12.4776 32.2603 12.4479 32.1991C12.4301 32.1617 12.4123 32.1222 12.3945 32.0848C12.3667 32.0237 12.337 31.9625 12.3093 31.8994C12.2915 31.86 12.2757 31.8186 12.2578 31.7772C12.2321 31.7161 12.2064 31.655 12.1826 31.5938C12.1668 31.5505 12.1509 31.5071 12.1351 31.4617C12.1133 31.4006 12.0895 31.3415 12.0698 31.2803C12.0539 31.233 12.0401 31.1857 12.0242 31.1384C12.0064 31.0792 11.9866 31.0201 11.9688 30.9609C11.9549 30.9097 11.9411 30.8584 11.9272 30.8071C11.9133 30.7559 11.8995 30.7027 11.8856 30.6514C11.8757 30.5863 11.8658 30.5213 11.8559 30.4542C11.848 30.4069 11.8421 30.3616 11.8341 30.3142C11.8242 30.2433 11.8143 30.1703 11.8064 30.0993C11.8005 30.05 11.7926 30.0027 11.7866 29.9534C11.7787 29.8844 11.7708 29.8134 11.7629 29.7444C11.7569 29.6932 11.751 29.6419 11.745 29.5906C11.7391 29.5236 11.7332 29.4566 11.7272 29.3876C11.7233 29.3343 11.7173 29.2791 11.7134 29.2259C11.7074 29.1608 11.7035 29.0958 11.6995 29.0307C11.6955 28.9735 11.6916 28.9183 11.6876 28.8611C11.6837 28.798 11.6817 28.7349 11.6777 28.6718C11.6757 28.6127 11.6718 28.5555 11.6698 28.4964C11.6678 28.4372 11.6658 28.3761 11.6639 28.3169C11.6619 28.2539 11.6599 28.1927 11.6579 28.1296C11.6579 28.0843 11.6579 28.037 11.6559 27.9916C11.6559 27.9167 11.654 27.8398 11.654 27.7649V19.967C11.654 19.8408 11.6559 19.7126 11.6579 19.5864C11.6599 19.48 11.6639 19.3735 11.6678 19.269V19.2473C11.9787 11.339 17.5661 4.44214 25.2582 2.47049C26.7312 2.09193 28.2578 1.90068 29.7962 1.90068H30.7426C40.5968 1.90068 48.6393 9.76365 48.8789 19.5194H41.4977C41.4977 19.4938 41.4957 19.4681 41.4957 19.4425C41.4937 19.4051 41.4937 19.3676 41.4917 19.3282C41.4898 19.267 41.4858 19.2039 41.4818 19.1428C41.4799 19.1054 41.4779 19.0679 41.4759 19.0324C41.4719 18.9673 41.466 18.9003 41.4601 18.8352C41.4581 18.8037 41.4541 18.7702 41.4521 18.7386C41.4422 18.6479 41.4323 18.5572 41.4224 18.4665C41.4224 18.4606 41.4205 18.4547 41.4205 18.4488C40.7968 13.6064 36.625 9.9549 31.7148 9.9549H29.7071C29.4101 9.9549 29.1131 9.9687 28.8161 9.9963C28.6023 10.016 28.3904 10.0436 28.1786 10.0752C27.2183 10.227 26.2838 10.5168 25.4126 10.9407C25.3235 10.9841 25.2364 11.0275 25.1493 11.0748C24.6246 11.3508 24.1316 11.6702 23.6742 12.0251L23.6663 12.0311H23.6683C21.326 13.8608 19.9242 16.6684 19.9242 19.7008ZM27.6678 12.1257C27.6895 12.1198 27.7133 12.1139 27.7351 12.1079C27.7806 12.0961 27.8262 12.0843 27.8717 12.0744C27.9073 12.0665 27.943 12.0587 27.9786 12.0508C28.0242 12.0409 28.0697 12.0311 28.1152 12.0212C28.1509 12.0133 28.1865 12.0074 28.2221 11.9995C28.2677 11.9916 28.3132 11.9818 28.3607 11.9739C28.3964 11.968 28.432 11.962 28.4677 11.9561C28.5152 11.9482 28.5607 11.9423 28.6082 11.9344C28.6439 11.9285 28.6795 11.9246 28.7152 11.9206C28.7627 11.9147 28.8122 11.9088 28.8597 11.9049C28.8933 11.9009 28.929 11.897 28.9626 11.893C29.0121 11.8891 29.0636 11.8852 29.1151 11.8812C29.1468 11.8792 29.1804 11.8753 29.2121 11.8733C29.2676 11.8694 29.325 11.8674 29.3804 11.8654C29.4081 11.8635 29.4339 11.8635 29.4616 11.8615C29.5448 11.8595 29.6279 11.8575 29.7111 11.8575H31.7187C31.8415 11.8575 31.9642 11.8595 32.087 11.8654C32.1266 11.8674 32.1662 11.8714 32.2058 11.8733C32.287 11.8792 32.3701 11.8832 32.4513 11.8911C32.5028 11.895 32.5543 11.9029 32.6077 11.9088C32.675 11.9167 32.7443 11.9226 32.8117 11.9325C32.873 11.9404 32.9324 11.9522 32.9938 11.962C33.0512 11.9719 33.1106 11.9798 33.1681 11.9896C33.2314 12.0015 33.2928 12.0153 33.3542 12.0291C33.4096 12.0409 33.4631 12.0508 33.5185 12.0646C33.5819 12.0803 33.6432 12.0961 33.7066 12.1139C33.7581 12.1277 33.8115 12.1395 33.863 12.1533C33.9284 12.171 33.9917 12.1927 34.057 12.2124C34.1046 12.2282 34.1541 12.242 34.2016 12.2578C34.2649 12.2795 34.3263 12.3031 34.3897 12.3248C34.4372 12.3426 34.4867 12.3583 34.5342 12.3761C34.5956 12.3998 34.655 12.4254 34.7144 12.449C34.7619 12.4688 34.8114 12.4885 34.8589 12.5082C34.9203 12.5338 34.9797 12.5634 35.0391 12.591C35.0846 12.6127 35.1322 12.6324 35.1777 12.6541C35.2371 12.6837 35.2965 12.7152 35.3539 12.7448C35.3995 12.7685 35.443 12.7901 35.4886 12.8138C35.546 12.8453 35.6014 12.8789 35.6588 12.9104C35.7024 12.936 35.7479 12.9597 35.7915 12.9873C35.8469 13.0208 35.9004 13.0563 35.9558 13.0918C35.9994 13.1194 36.0429 13.145 36.0865 13.1746C36.14 13.2101 36.1934 13.2476 36.2449 13.285C36.2865 13.3146 36.33 13.3422 36.3716 13.3738C36.4231 13.4112 36.4746 13.4526 36.526 13.4921C36.5676 13.5236 36.6092 13.5532 36.6488 13.5847C36.6983 13.6242 36.7458 13.6656 36.7953 13.707C36.8349 13.7405 36.8765 13.774 36.9161 13.8075C36.9636 13.8489 37.0091 13.8923 37.0547 13.9337C37.0943 13.9692 37.1339 14.0047 37.1735 14.0421C37.217 14.0836 37.2586 14.1269 37.3022 14.1703C37.3418 14.2097 37.3814 14.2472 37.419 14.2866C37.4606 14.33 37.5002 14.3754 37.5398 14.4187C37.5774 14.4601 37.617 14.4996 37.6526 14.5429C37.6922 14.5883 37.7298 14.6336 37.7675 14.679C37.8031 14.7224 37.8407 14.7657 37.8764 14.8091C37.914 14.8545 37.9476 14.9018 37.9833 14.9491C38.0189 14.9945 38.0546 15.0398 38.0882 15.0852C38.1219 15.1325 38.1536 15.1798 38.1872 15.2271C38.2209 15.2744 38.2565 15.3237 38.2882 15.371C38.3199 15.4184 38.3476 15.4657 38.3793 15.513C38.4109 15.5643 38.4446 15.6136 38.4763 15.6668C38.506 15.7141 38.5317 15.7654 38.5614 15.8127C38.5911 15.8659 38.6228 15.9172 38.6525 15.9704C38.6802 16.0197 38.704 16.071 38.7297 16.1203C38.7574 16.1755 38.7871 16.2287 38.8129 16.2839C38.8366 16.3332 38.8584 16.3845 38.8822 16.4357C38.9079 16.4929 38.9356 16.5481 38.9594 16.6053C38.9812 16.6546 39.001 16.7078 39.0208 16.7571C39.0445 16.8163 39.0703 16.8734 39.0921 16.9326C39.1119 16.9839 39.1277 17.0371 39.1475 17.0884C39.1693 17.1475 39.191 17.2086 39.2108 17.2678C39.2287 17.321 39.2425 17.3762 39.2603 17.4295C39.2782 17.4906 39.298 17.5497 39.3158 17.6108C39.3316 17.6661 39.3435 17.7213 39.3574 17.7765C39.3732 17.8376 39.389 17.8987 39.4029 17.9618C39.4148 18.017 39.4267 18.0742 39.4366 18.1314C39.4484 18.1945 39.4623 18.2556 39.4742 18.3187C39.4841 18.3758 39.492 18.435 39.5019 18.4941C39.5118 18.5533 39.5217 18.6144 39.5296 18.6736C39.5316 18.7091 39.5356 18.7426 39.5375 18.7781C39.5455 18.8766 39.5534 18.9752 39.5593 19.0718C39.5633 19.1231 39.5653 19.1763 39.5672 19.2276C39.5712 19.3124 39.5771 19.3972 39.5811 19.4819C39.5811 19.4938 39.5811 19.5056 39.5831 19.5194H31.3287C31.2633 16.5994 29.9091 13.912 27.6678 12.1257Z" fill="white"/>
<path d="M63.9186 22.0983V33.1415H59.5765V15.1226H64.075L70.692 26.294V15.1226H75.034V33.1415H70.6405L63.9186 22.0983Z" fill="white"/>
<path d="M84.7041 33.1416H80.2571L85.5218 15.1936H90.1747L95.4393 33.1416H90.9924L87.8205 21.8972L84.7041 33.1416Z" fill="white"/>
<path d="M108.741 31.6746L104.759 21.3274V33.1415H100.52V15.1226H106.258L110.756 26.5247L115.28 15.1226H121.018V33.1415H116.779V21.3274L112.797 31.6746H108.741Z" fill="white"/>
<path d="M126.192 33.1415V15.1226H139.794V19.06H130.613V22.0707H137.634V25.9824H130.613V29.2002H140.002V33.1376H126.192V33.1415Z" fill="white"/>
</g>
<defs>
<clipPath id="clip0_121_382">
<rect width="140" height="48" fill="white"/>
</clipPath>
</defs>
</svg>
