<svg width="300" height="51" viewBox="0 0 300 51" fill="none" xmlns="http://www.w3.org/2000/svg">
<g clip-path="url(#clip0_940_17983)">
<path d="M101.107 10.73L108.017 25.35L115.087 10.73H124.807V34.22H117.417V19.22L110.377 34.22H105.137L98.1272 19.22V34.22H90.8672V10.73H101.107Z" fill="white"/>
<path d="M151.656 16.13H136.636V19.54H151.756V25.13H136.636V28.76H151.846V34.22H129.146V10.73H151.656V16.13Z" fill="white"/>
<path d="M155.117 16.66V10.73H183.147V16.66H172.887V34.21H165.377V16.66H155.117Z" fill="white"/>
<path d="M189.367 30.1397L187.567 34.2097H180.027L190.697 10.7197H200.637L211.657 34.2097H203.607L201.777 30.1397H189.367ZM191.667 24.9597H199.467L195.517 16.1797L191.667 24.9597Z" fill="white"/>
<path d="M208.547 16.66V10.73H236.577V16.66H226.317V34.21H218.807V16.66H208.547Z" fill="white"/>
<path d="M242.797 30.1397L240.997 34.2097H233.457L244.127 10.7197H254.067L265.087 34.2097H257.037L255.207 30.1397H242.797ZM245.097 24.9597H252.897L248.947 16.1797L245.097 24.9597Z" fill="white"/>
<path d="M265.598 22.4098V21.6498C265.598 16.5698 268.628 10.0298 280.028 10.0298H281.098C292.338 10.0298 295.288 15.5898 295.288 19.1798H287.488C287.488 19.1798 287.548 15.7698 280.598 15.8298C275.008 15.8298 273.428 18.8598 273.428 21.7998V22.1798C273.428 25.0498 275.168 28.3998 280.718 28.3998C286.048 28.3998 287.188 25.9398 287.348 25.1798H280.778V20.8898H295.278V33.8598H289.898V29.7998C289.898 29.7998 287.168 34.2098 279.888 34.2098H279.348C268.788 34.2098 265.598 27.7098 265.598 22.4098Z" fill="white"/>
<path d="M68.5404 32.3702C68.5204 32.2602 68.4904 32.1502 68.4504 32.0402L62.4004 11.4702C60.4604 4.85023 56.3404 0.580225 51.3904 0.0602248C46.9304 -0.419775 42.8404 2.13022 40.1704 7.03022L35.0604 16.4202C34.9604 16.6102 34.8804 16.8002 34.8204 17.0002C34.6504 17.3502 34.4504 17.7402 34.2304 18.1902L28.5504 29.9002C27.2504 32.6202 25.8604 35.5702 24.4604 38.6102C23.6804 40.3002 20.6904 41.0602 18.0804 41.0602C15.7404 41.0602 12.6704 40.7102 11.2804 39.0202C10.0604 37.5402 10.2904 35.2102 10.3704 34.6502L16.3404 14.3602C17.0704 11.8602 18.0304 10.7502 18.4804 10.3902C18.4904 10.3802 18.4904 10.3802 18.5004 10.3902C18.7304 10.5802 19.1404 10.9902 19.6204 11.8602L26.3404 25.4402C26.3504 25.4502 26.3604 25.4502 26.3704 25.4402L30.8204 16.3602C31.6104 14.7602 31.6004 12.8802 30.8104 11.2802L28.7904 7.19022C28.7604 7.13022 28.7304 7.07022 28.7004 7.02022C26.0304 2.11022 21.9404 -0.429775 17.4804 0.0502248C12.5204 0.580225 8.41039 4.85023 6.46039 11.4702L0.410387 32.0302C0.380387 32.1402 0.350387 32.2502 0.320387 32.3602C0.150387 33.1202 -1.19961 39.9202 3.21039 45.4202C6.37039 49.3502 11.3604 51.3502 18.0704 51.3502C25.4704 51.3502 31.3504 48.2002 33.7904 42.9302C33.9904 42.5102 34.1804 42.0902 34.3804 41.6702L40.0004 29.8302C42.5904 24.4802 44.4604 20.7302 44.7404 20.1702L49.2204 11.9302C49.7304 10.9902 50.1604 10.5602 50.3904 10.3702C50.8404 10.7202 51.8004 11.8302 52.5404 14.3502L58.5104 34.6402C58.5904 35.2002 58.8204 37.5302 57.6004 39.0102C56.2104 40.7002 53.1304 41.0502 50.8004 41.0502C48.1904 41.0502 45.2004 40.2902 44.4204 38.6002C44.2804 38.3002 44.1104 38.0202 43.9304 37.7602C43.9104 37.7102 43.8904 37.6602 43.8604 37.6102L42.3004 34.4602C42.2604 34.4602 42.2604 34.4602 42.2204 34.4602L41.5104 35.9302L38.4404 42.2602C37.3404 44.5302 38.2304 47.4202 40.3904 48.7202C43.2004 50.4102 46.7704 51.3402 50.7904 51.3402C57.4904 51.3402 62.4904 49.3502 65.6504 45.4102C70.0604 39.9302 68.7104 33.1302 68.5404 32.3702Z" fill="white"/>
</g>
<defs>
<clipPath id="clip0_940_17983">
<rect width="300" height="51" fill="white"/>
</clipPath>
</defs>
</svg>
