<svg width="32" height="32" viewBox="0 0 32 32" fill="none" xmlns="http://www.w3.org/2000/svg">
<circle cx="16" cy="16" r="16" fill="#8247E5"/>
<path d="M21.658 12.1128C21.2559 11.8754 20.7389 11.8754 20.2794 12.1128L17.0627 14.0712L14.8799 15.3175L11.7206 17.276C11.3185 17.5134 10.8016 17.5134 10.342 17.276L7.87206 15.7329C7.46997 15.4955 7.18277 15.0208 7.18277 14.4866V11.5193C7.18277 11.0445 7.41253 10.5697 7.87206 10.273L10.342 8.78932C10.7441 8.55193 11.2611 8.55193 11.7206 8.78932L14.1906 10.3323C14.5927 10.5697 14.8799 11.0445 14.8799 11.5786V13.5371L17.0627 12.2315V10.2136C17.0627 9.73887 16.8329 9.2641 16.3734 8.96736L11.7781 6.17804C11.376 5.94065 10.859 5.94065 10.3995 6.17804L5.6893 9.02671C5.22977 9.26409 5 9.73887 5 10.2136V15.7923C5 16.2671 5.22977 16.7418 5.6893 17.0386L10.342 19.8279C10.7441 20.0653 11.2611 20.0653 11.7206 19.8279L14.8799 17.9288L17.0627 16.6231L20.2219 14.724C20.624 14.4866 21.141 14.4866 21.6005 14.724L24.0705 16.2077C24.4726 16.4451 24.7598 16.9199 24.7598 17.454V20.4214C24.7598 20.8961 24.53 21.3709 24.0705 21.6677L21.658 23.1513C21.2559 23.3887 20.7389 23.3887 20.2794 23.1513L17.8094 21.6677C17.4073 21.4303 17.1201 20.9555 17.1201 20.4214V18.5223L14.9373 19.8279V21.7864C14.9373 22.2611 15.1671 22.7359 15.6266 23.0326L20.2794 25.822C20.6815 26.0593 21.1984 26.0593 21.658 25.822L26.3107 23.0326C26.7128 22.7953 27 22.3205 27 21.7864V16.1484C27 15.6736 26.7702 15.1988 26.3107 14.9021L21.658 12.1128Z" fill="white"/>
<circle cx="16" cy="16" r="16" fill="url(#paint0_linear_621_23580)" fill-opacity="0.2"/>
<defs>
<linearGradient id="paint0_linear_621_23580" x1="16" y1="0" x2="16" y2="32" gradientUnits="userSpaceOnUse">
<stop stop-color="white"/>
<stop offset="1" stop-color="white" stop-opacity="0"/>
</linearGradient>
</defs>
</svg>
