<svg width="32" height="32" viewBox="0 0 32 32" fill="none" xmlns="http://www.w3.org/2000/svg">
<circle cx="16" cy="16" r="16" fill="#001253"/>
<g clip-path="url(#clip0_621_23614)">
<path d="M16.265 4C11.3096 4.00133 7.29243 8.01846 7.29111 12.9739C7.29177 13.5409 7.34482 14.1065 7.44992 14.6635L8.61103 13.8698C10.6491 12.4716 13.9547 12.4716 15.9925 13.8698L17.2079 14.7039L17.8691 15.1565C19.7056 16.4148 22.6819 16.4148 24.5161 15.1565L25.0565 14.7868C26.0525 9.92888 22.922 5.18365 18.064 4.18766C17.4739 4.06664 16.8724 4.0053 16.2696 4.00464L16.265 4Z" fill="#F2B705"/>
<path d="M21.3103 18.365C20.0288 18.3895 18.7689 18.0314 17.6917 17.3365L15.8174 16.0521C13.7369 14.7756 11.1159 14.7756 9.03543 16.0521L7.82459 16.8816C7.58454 17.0457 7.25663 16.9844 7.09251 16.744C6.92839 16.504 6.98973 16.1761 7.22978 16.0119L8.44062 15.1824C10.8815 13.6658 13.9713 13.6658 16.4122 15.1824L18.2865 16.4668C20.1409 17.6041 22.477 17.6041 24.3314 16.4668L25.0423 15.9811C25.2823 15.817 25.6102 15.8783 25.7744 16.1187C25.9385 16.3587 25.8771 16.6867 25.6371 16.8508L24.9262 17.3365C23.8493 18.0295 22.5908 18.3875 21.31 18.365" fill="#53CBC8"/>
<path d="M12.3881 22.1351V17.064C12.3838 16.9572 12.3878 16.8501 12.4001 16.744C12.4335 16.4552 12.6782 16.2374 12.9687 16.2367C13.2502 16.2453 13.4803 16.4635 13.5041 16.744C13.5257 16.9201 13.532 17.0978 13.523 17.2748V27.3863C13.535 27.7132 13.2793 27.9881 12.9524 27.9997C12.9491 27.9997 12.9458 27.9997 12.9425 27.9997C12.6209 27.9818 12.3749 27.7066 12.3928 27.3853C12.3931 27.376 12.3941 27.3667 12.3951 27.3574V23.9855L12.3881 22.1348V22.1351Z" fill="#53CBC8"/>
<path d="M11.3218 19.5831V22.102C11.3218 22.5333 11.0848 22.8128 10.7648 22.8128C10.4449 22.8128 10.1912 22.5118 10.1889 22.102V17.0593C10.1889 16.6187 10.4472 16.32 10.7814 16.3485C11.1156 16.377 11.3145 16.6306 11.3169 17.0736C11.3215 17.9028 11.3215 18.742 11.3215 19.5831" fill="#53CBC8"/>
<path d="M14.5943 19.5782V17.8103C14.5943 17.4002 14.8125 17.1349 15.1371 17.1349C15.4729 17.1505 15.7325 17.4356 15.7169 17.7718C15.7166 17.7798 15.716 17.7881 15.7153 17.796C15.7262 18.9999 15.7262 20.2045 15.7153 21.4097C15.7153 21.8195 15.4782 22.0685 15.1394 22.0638C14.8005 22.0592 14.5943 21.8079 14.592 21.3884V19.5805L14.5943 19.5782V19.5782Z" fill="#53CBC8"/>
<path d="M7.99268 19.9432V18.173C7.99268 17.7609 8.21051 17.4953 8.53543 17.4953C8.8713 17.5112 9.13091 17.7964 9.11533 18.1322C9.11499 18.1402 9.11433 18.1485 9.11367 18.1564C9.12461 19.362 9.12461 20.5672 9.11367 21.7727C9.11367 22.1825 8.87661 22.4292 8.54008 22.4269C8.20355 22.4246 7.99268 22.1709 7.99036 21.7492V19.9435H7.99268V19.9432Z" fill="#53CBC8"/>
<path d="M17.3455 18.4409C17.6532 18.4409 17.9025 18.6902 17.9025 18.9979V19.9601C17.9025 20.2678 17.6532 20.5168 17.3455 20.5168C17.0378 20.5168 16.7885 20.2675 16.7885 19.9601V18.9979C16.7885 18.6902 17.0378 18.4409 17.3455 18.4409Z" fill="#53CBC8"/>
<path d="M19.5494 19.2844C19.8571 19.2844 20.1064 19.5337 20.1064 19.8414V25.2418C20.1064 25.5495 19.8571 25.7988 19.5494 25.7988C19.2417 25.7988 18.9924 25.5495 18.9924 25.2418V19.8414C18.9924 19.5337 19.2417 19.2844 19.5494 19.2844" fill="#53CBC8"/>
<path d="M21.739 19.4929C22.0467 19.4929 22.296 19.7423 22.296 20.0499V24.64C22.296 24.9477 22.0467 25.197 21.739 25.197C21.4313 25.197 21.182 24.9477 21.182 24.64V20.0499C21.182 19.7423 21.4313 19.4929 21.739 19.4929Z" fill="#53CBC8"/>
<path d="M23.9594 18.9694C24.2671 18.9694 24.5164 19.2188 24.5164 19.5264V21.5052C24.5164 21.8128 24.2671 22.0622 23.9594 22.0622C23.6517 22.0622 23.4024 21.8128 23.4024 21.5052V19.5264C23.4024 19.2191 23.6517 18.9694 23.9594 18.9694" fill="#53CBC8"/>
</g>
<circle cx="16" cy="16" r="16" fill="url(#paint0_linear_621_23614)" fill-opacity="0.2"/>
<defs>
<linearGradient id="paint0_linear_621_23614" x1="16" y1="0" x2="16" y2="32" gradientUnits="userSpaceOnUse">
<stop stop-color="white"/>
<stop offset="1" stop-color="white" stop-opacity="0"/>
</linearGradient>
<clipPath id="clip0_621_23614">
<rect width="18.8665" height="24" fill="white" transform="translate(7 4)"/>
</clipPath>
</defs>
</svg>
