<svg width="1440" height="1084" viewBox="0 0 1440 1084" fill="none" xmlns="http://www.w3.org/2000/svg">
<g clip-path="url(#clip0_553_4873)">
<rect width="1440" height="1084" fill="white"/>
<g opacity="0.8" filter="url(#filter0_f_553_4873)">
<circle cx="-82.4672" cy="251.533" r="204.5" transform="rotate(35.8578 -82.4672 251.533)" fill="#D926AE"/>
</g>
<path d="M162.5 342L163.933 356.541L175.228 347.272L165.959 358.567L180.5 360L165.959 361.433L175.228 372.728L163.933 363.459L162.5 378L161.067 363.459L149.772 372.728L159.041 361.433L144.5 360L159.041 358.567L149.772 347.272L161.067 356.541L162.5 342Z" fill="#FF6A62"/>
<path d="M1232 323L1234.95 352.89L1258.16 333.837L1239.11 357.055L1269 360L1239.11 362.945L1258.16 386.163L1234.95 367.11L1232 397L1229.05 367.11L1205.84 386.163L1224.89 362.945L1195 360L1224.89 357.055L1205.84 333.837L1229.05 352.89L1232 323Z" fill="#FF6A62"/>
<g filter="url(#filter1_f_553_4873)">
<circle cx="1424" cy="763" r="133" fill="#FF4361" fill-opacity="0.8"/>
</g>
<rect x="276.043" y="781.414" width="54.6274" height="54.6274" transform="rotate(45 276.043 781.414)" stroke="#FF6A62" stroke-width="2"/>
<rect x="299.559" y="25" width="64" height="64" transform="rotate(44.1234 299.559 25)" fill="#FB406C"/>
<rect x="1194.8" y="841" width="27" height="27" transform="rotate(44.1234 1194.8 841)" fill="#FB406C"/>
<path d="M1499.73 -348.94C1551.99 -306.993 1644.94 -199.177 1598.69 -103.498C1540.88 16.1001 1230.53 -17.0791 1256.69 -71.1961C1276.05 -111.243 1405.37 4.00841 1404.62 84.4253C1404.07 143.063 1343.77 172.515 1270.55 174.505C1197.32 176.496 1194.03 229.438 1220.37 250.391C1243.88 269.101 1257.38 257.601 1238.11 241.61C1221.7 230.115 1184.82 225.964 1137.76 243.845C1004.12 294.625 1012.19 464.21 1171.19 519.702" stroke="#FF7362" stroke-opacity="0.2" stroke-width="8"/>
<g filter="url(#filter2_f_553_4873)">
<circle cx="1177" cy="1103" r="207" fill="#D926AE" fill-opacity="0.8"/>
</g>
</g>
<defs>
<filter id="filter0_f_553_4873" x="-686.98" y="-352.982" width="1209.03" height="1209.03" filterUnits="userSpaceOnUse" color-interpolation-filters="sRGB">
<feFlood flood-opacity="0" result="BackgroundImageFix"/>
<feBlend mode="normal" in="SourceGraphic" in2="BackgroundImageFix" result="shape"/>
<feGaussianBlur stdDeviation="200" result="effect1_foregroundBlur_553_4873"/>
</filter>
<filter id="filter1_f_553_4873" x="991" y="330" width="866" height="866" filterUnits="userSpaceOnUse" color-interpolation-filters="sRGB">
<feFlood flood-opacity="0" result="BackgroundImageFix"/>
<feBlend mode="normal" in="SourceGraphic" in2="BackgroundImageFix" result="shape"/>
<feGaussianBlur stdDeviation="150" result="effect1_foregroundBlur_553_4873"/>
</filter>
<filter id="filter2_f_553_4873" x="570" y="496" width="1214" height="1214" filterUnits="userSpaceOnUse" color-interpolation-filters="sRGB">
<feFlood flood-opacity="0" result="BackgroundImageFix"/>
<feBlend mode="normal" in="SourceGraphic" in2="BackgroundImageFix" result="shape"/>
<feGaussianBlur stdDeviation="200" result="effect1_foregroundBlur_553_4873"/>
</filter>
<clipPath id="clip0_553_4873">
<rect width="1440" height="1084" fill="white"/>
</clipPath>
</defs>
</svg>
